<svg xmlns="http://www.w3.org/2000/svg" xmlns:svg="http://www.w3.org/2000/svg" id="svg6059" width="37.996" height="58.07" version="1.1" viewBox="0 0 10.053 15.364"><metadata id="metadata6056"/><g id="layer1" transform="translate(-97.027114,-8.1035711)"><path style="display:inline;fill:#37c837;fill-opacity:1;stroke:#000;stroke-width:.11;stroke-linecap:butt;stroke-linejoin:miter;stroke-miterlimit:4;stroke-dasharray:none;stroke-opacity:1" id="path4795" d="m 101.99584,8.1639757 0.5028,0.3858704 0.18709,0.3040191 0.30402,0.3274051 0.45602,0.1169305 0.16371,0.1403165 0.0351,0.3624843 0.0819,0.2689394 0.29233,0.222168 0.35079,0.05846 0.28063,0.15201 0.17539,0.187088 0.0468,0.175396 -0.0351,0.257247 -0.21047,0.140317 0.0234,0.187088 0.11693,0.245554 0.21047,0.163703 0.38587,0.128623 0.25725,0.09354 0.30402,0.233861 0.0702,0.397564 -0.0702,0.65481 0.0296,0.387481 0.0744,0.23151 0.1819,0.248047 0.42995,0.148828 0.1819,0.198438 0.0165,0.413411 -0.0827,0.33073 -0.21498,0.297656 -0.23151,0.248047 -0.0496,0.281119 -0.0331,0.28112 0.0331,0.248047 0.3142,0.248047 0.29765,0.248047 0.14883,0.496094 -0.14883,0.264583 -0.41341,0.09922 -0.44648,0.181901 -0.26459,0.330729 -0.0992,0.429948 0.0331,0.347266 0.1819,0.214974 0.11576,0.198437 0.0496,0.380339 -0.0827,0.148828 -0.28112,0.115755 -0.26458,0.04961 -0.39688,0.297657 -0.21497,0.165364 -0.16537,0.297656 v 0.727605 l 0.0496,0.330729 -0.0496,0.132291 -0.26458,0.08268 -0.33073,-0.115756 h -0.28112 l -0.44648,0.264584 -0.26459,0.248047 -0.0165,0.23151 -0.0661,0.198438 -0.47955,0.115755 -0.46302,-0.04961 -0.1819,-0.23151 -0.14883,-0.06615 -0.84336,-0.01654 -0.21498,0.165364 -0.23151,0.06615 -0.23151,-0.04961 -0.0992,-0.148828 -0.347263,-0.248046 -0.64492,-0.132293 -0.28112,-0.363802 -0.446485,-0.264583 -0.248046,-0.297657 -0.01654,-0.314192 0.446484,0.396875 0.28112,0.148828 0.347266,0.248047 0.248047,0.132291 0.595312,0.115756 0.694535,0.04961 0.69453,-0.09922 0.38034,-0.03307 0.51263,-0.28112 0.41341,-0.330729 0.52916,-0.51263 0.41342,-0.314193 0.3638,-0.314192 0.11575,-0.231511 -0.49609,-0.03307 h -0.42995 l -0.19844,0.148829 -0.13229,0.330729 -0.29765,0.330729 -0.57878,0.23151 -0.79375,0.28112 h -1.02526 l -0.496094,-0.23151 -0.08268,-0.264584 0.09922,-0.628385 0.281119,0.23151 0.264585,0.181901 0.3638,0.04961 0.46302,-0.429948 0.33073,-0.314193 0.13229,-0.446484 -0.0661,-0.264584 -0.31419,-0.248046 -0.1819,0.03307 -0.52917,0.148829 -0.24805,-0.132292 -0.14882,0.264583 -0.132296,0.231511 -0.03307,0.23151 -0.165365,-0.06615 -0.115755,-0.28112 0.01654,-0.165364 -0.545703,-0.06615 -0.165364,-0.396875 -0.06615,-0.909505 0.03307,-0.115755 0.165364,-0.165365 0.446485,-0.03307 0.165364,-0.06615 0.08268,-0.661458 0.148829,-0.03307 0.711071,0.03307 0.11575,-0.04961 -0.0165,-0.628386 0.0827,-0.115755 h 0.62839 l 0.23151,-0.214974 0.33073,-0.03307 0.41341,0.214974 v 0.214986 l 0.24805,0.165365 0.29765,0.04961 0.29766,0.165364 0.24806,-0.115754 -0.0496,-0.347266 -0.34727,-0.297656 -0.41341,-0.314193 -0.71107,-0.23151 -0.81028,-0.132292 h -0.72761 l -0.843357,0.198437 -0.661458,0.28112 -0.396875,0.413412 -0.56224,0.677994 -0.297656,0.529167 -0.28112,0.595312 -0.06615,0.297657 -0.198437,-0.727605 0.03307,-0.380338 0.264584,-0.23151 0.09922,-0.711068 0.165364,-0.132292 0.463021,-0.08268 0.198437,-0.314192 0.132292,-0.231511 0.198438,-0.429948 0.03307,-0.06615 0.115755,-0.08268 0.628385,0.148828 0.463021,-0.01654 0.264586,-0.314192 0.19844,-0.264584 0.29765,-0.181901 0.29766,0.132292 0.42995,0.23151 0.59531,-0.03307 0.21497,-0.165364 0.28112,-0.148828 0.28112,-0.06615 0.19844,0.03307 0.33073,0.297656 0.11575,0.677995 0.11576,0.198437 0.29766,0.314193 0.19843,0.09922 0.62839,0.03307 0.33073,-0.148828 0.24805,-0.297658 0.19844,-0.396875 0.0331,-0.46302 -0.21497,-0.314193 -0.29766,-0.231511 -0.3638,-0.23151 -0.21497,-0.115755 v -0.181901 l 0.16536,-0.181901 0.1819,-0.347266 -0.0827,-0.529167 -0.31419,-0.330729 -0.39688,-0.198437 -0.11575,-0.148828 0.13229,-0.595313 -0.13229,-0.380338 -0.24805,-0.479558 -0.11576,-0.03307 -0.14882,0.115756 -0.0992,-0.04961 -0.0662,-0.7606768 c 0,0 -0.11575,-0.1819009 -0.1819,-0.1984374 -0.0661,-0.016536 -0.41341,-0.2811197 -0.41341,-0.2811197 l -0.0331,0.2149739 -0.0992,0.099219 -0.0827,-0.115755 0.0165,-0.6614584 -0.16537,-0.2645837 -0.23151,-0.2811198 -0.21498,-0.082682 z"/><path style="display:inline;fill:#007000;fill-opacity:1;stroke:#299829;stroke-width:.11;stroke-linecap:butt;stroke-linejoin:miter;stroke-miterlimit:4;stroke-dasharray:none;stroke-opacity:1" id="path4799" d="m 102.02808,20.13765 0.17539,-0.315712 0.23387,-0.05846 0.14031,0.26894 0.0351,0.456028 -0.10523,0.15201 c 0,0 -0.19879,-0.01169 -0.24556,-0.01169 -0.0468,0 -0.26894,-0.163703 -0.26894,-0.163703 l -0.0468,-0.11693 z"/><path style="display:inline;fill:#007000;fill-opacity:1;stroke:#299829;stroke-width:.11;stroke-linecap:butt;stroke-linejoin:miter;stroke-miterlimit:4;stroke-dasharray:none;stroke-opacity:1" id="path4801" d="m 103.08329,19.506226 -0.1637,-0.187089 0.0468,-0.315712 0.25724,0.01169 c 0,0 0.1754,0.163703 0.21048,0.210475 0.0351,0.04677 -0.0117,0.210476 -0.0117,0.210476 l -0.23386,0.128622 z"/><path style="display:inline;fill:#007000;fill-opacity:1;stroke:#299829;stroke-width:.11;stroke-linecap:butt;stroke-linejoin:miter;stroke-miterlimit:4;stroke-dasharray:none;stroke-opacity:1" id="path4801-8" d="m 103.11057,18.125973 0.0468,0.315712 0.35664,-0.01754 c 0,0 0.0468,-0.222168 0.0819,-0.26894 l -0.15201,-0.181243 z"/><path style="display:inline;fill:#007000;fill-opacity:1;stroke:#299829;stroke-width:.11;stroke-linecap:butt;stroke-linejoin:miter;stroke-miterlimit:4;stroke-dasharray:none;stroke-opacity:1" id="path4818" d="m 99.695248,18.699261 0.214974,-0.37207 0.157098,-0.04134 0.13229,0.297656 -0.248047,0.314193 -0.256315,0.06615 z"/></g></svg>