<svg xmlns="http://www.w3.org/2000/svg" xmlns:svg="http://www.w3.org/2000/svg" id="svg5483" width="33.505" height="28.895" version="1.1" viewBox="0 0 8.865 7.645"><metadata id="metadata5480"/><g id="layer1" transform="translate(-180.0199,-162.3977)"><path style="display:inline;fill:#5a2ca0;fill-opacity:1;stroke:#000;stroke-width:.065;stroke-linecap:butt;stroke-linejoin:miter;stroke-miterlimit:4;stroke-dasharray:none;stroke-opacity:1" id="path4608-2" d="m 184.8525,163.71711 h 1.84667 l 1.21942,-1.20271 0.37167,-0.071 0.55542,0.80599 -0.20881,0.31738 -1.72472,0.49278 -0.89716,1.59382 -0.40101,0.72347 -0.94723,1.65103 0.47901,1.63811 -0.1224,0.34426 -0.57098,-6.8e-4 -0.57354,3.4e-4 -0.1224,-0.34424 0.47227,-1.64224 -0.93793,-1.64587 -0.40101,-0.72347 -0.89716,-1.59382 -1.72472,-0.49278 -0.20881,-0.31738 0.55542,-0.80599 0.37168,0.071 1.21941,1.20271 h 1.84667 z"/><path style="display:inline;fill:#7137c8;fill-opacity:1;stroke:#000;stroke-width:.065;stroke-linecap:butt;stroke-linejoin:miter;stroke-miterlimit:4;stroke-dasharray:none;stroke-opacity:1" id="path4627-0-0" d="m 186.7116,166.91902 -0.24912,0.0705 -0.3506,-0.19586 -1.34222,-1.18789 -0.1903,-0.28842 0.34191,0.0119 1.71482,0.52604 0.3506,0.19586 0.0705,0.24912 -0.16727,0.29943 z"/><path style="display:inline;fill:#7137c8;fill-opacity:1;stroke:#000;stroke-width:.065;stroke-linecap:butt;stroke-linejoin:miter;stroke-miterlimit:4;stroke-dasharray:none;stroke-opacity:1" id="path4627" d="m 184.10328,162.4302 -0.18308,0.18309 v 0.4016 l 0.38244,1.7511 0.15898,0.3068 0.15636,-0.3043 0.37709,-1.7536 v -0.4016 l -0.18308,-0.18309 h -0.34298 z"/><path style="display:inline;fill:#7137c8;fill-opacity:1;stroke:#000;stroke-width:.065;stroke-linecap:butt;stroke-linejoin:miter;stroke-miterlimit:4;stroke-dasharray:none;stroke-opacity:1" id="path4627-0" d="m 182.19316,166.91973 0.24913,0.0705 0.3506,-0.19586 1.34222,-1.18789 0.19029,-0.28842 -0.34191,0.0119 -1.71482,0.52604 -0.3506,0.19586 -0.0705,0.24912 0.16727,0.29943 z"/></g></svg>