<svg xmlns="http://www.w3.org/2000/svg" xmlns:svg="http://www.w3.org/2000/svg" id="svg8" width="166.257" height="166.257" version="1.1" viewBox="0 0 43.989 43.989"><metadata id="metadata5"/><g transform="translate(-4.0282269,-16.80582)" style="display:inline;opacity:1" id="layer5"><circle style="opacity:1;fill:#292929;fill-opacity:1;stroke-width:.21196643" id="circle5179" cx="26.023" cy="38.8" r="20.818"/><circle id="path4715" cx="26.023" cy="38.8" r="19.995" style="opacity:1;fill:#ffd52b;fill-opacity:1;stroke-width:.20358483"/><circle style="opacity:1;fill:#e4b90f;fill-opacity:1;stroke-width:.19765817" id="circle5173" cx="26.023" cy="38.8" r="19.413"/><circle id="circle5181" cx="26.023" cy="38.8" r="18.672" style="opacity:1;fill:#0c0c0c;fill-opacity:1;stroke-width:.19011514"/></g><g transform="translate(-4.0282269,-248.98288)" style="display:inline;opacity:1" id="layer2"><circle id="path4564" cx="25.995" cy="270.932" r="1.795" style="display:inline;opacity:1;fill:#6b5400;fill-opacity:1;stroke-width:.26458332"/><circle id="path4582" cx="25.995" cy="270.933" r="1.64" style="display:inline;opacity:1;fill:#e4b90f;fill-opacity:1;stroke-width:.26060271"/><circle id="circle4578-4" cx="26.443" cy="266.004" r="1.369" style="display:inline;opacity:1;fill:#6f5b09;fill-opacity:1;stroke-width:.20181014"/><circle id="circle4578-4-9" cx="26.432" cy="266.001" r="1.226" style="display:inline;opacity:1;fill:#eec521;fill-opacity:1;stroke-width:.18064202"/><circle id="path4723" cx="23.893" cy="262.178" r="1.276" style="display:inline;opacity:1;fill:#675408;fill-opacity:1;stroke-width:.26458332"/><path id="path4726" d="m 23.96349,261.31531 a 1.0984933,1.0984933 0 0 0 -1.098124,1.09864 1.0984933,1.0984933 0 0 0 0.528651,0.93741 1.2756697,1.2756697 0 0 0 0.0021,10e-4 1.2756697,1.2756697 0 0 0 0.496612,0.10077 1.2756697,1.2756697 0 0 0 1.064532,-0.57361 1.0984933,1.0984933 0 0 0 0.104905,-0.4656 1.0984933,1.0984933 0 0 0 -1.098642,-1.09864 z" style="opacity:1;fill:#f0ca33;fill-opacity:1;stroke-width:.26458332"/><circle id="path4787" cx="20.16" cy="260.595" r="1.217" style="display:inline;opacity:1;fill:#876e0a;fill-opacity:1;stroke-width:.26458332"/><path id="path4794" d="m 20.337357,259.75623 a 1.0276227,1.0276227 0 0 0 -1.027328,1.02733 1.0276227,1.0276227 0 0 0 0.945162,1.02371 1.2166108,1.2166108 0 0 0 1.108977,-1.04748 1.0276227,1.0276227 0 0 0 -1.026811,-1.00356 z" style="opacity:1;fill:#f0ce46;fill-opacity:1;stroke-width:.26458332"/><circle id="path4801" cx="16.382" cy="261.146" r="1.111" style="opacity:1;fill:#89700b;fill-opacity:1;stroke-width:.26458332"/><path id="path4803" d="m 16.627505,260.52621 a 0.88867114,0.88867114 0 0 0 -0.888834,0.88883 0.88867114,0.88867114 0 0 0 0.60048,0.83975 1.1108389,1.1108389 0 0 0 0.04289,0.002 1.1108389,1.1108389 0 0 0 1.107943,-1.05213 0.88867114,0.88867114 0 0 0 -0.86248,-0.67851 z" style="display:inline;opacity:1;fill:#f0cd42;fill-opacity:1;stroke-width:.26458332"/><circle id="path4809" cx="13.217" cy="262.986" r=".943" style="opacity:1;fill:#81690a;fill-opacity:1;stroke-width:.26458332"/><path id="path4815" d="m 13.444754,262.42739 a 0.76481121,0.76481121 0 0 0 -0.764811,0.76481 0.76481121,0.76481121 0 0 0 0.556555,0.73535 0.94257811,0.94257811 0 0 0 0.923458,-0.94206 0.94257811,0.94257811 0 0 0 -0.0031,-0.0718 0.76481121,0.76481121 0 0 0 -0.712101,-0.48627 z" style="opacity:1;fill:#f1cd3f;fill-opacity:1;stroke-width:.26458332"/><circle id="path4820" cx="11.266" cy="265.755" r=".885" style="opacity:1;fill:#755f09;fill-opacity:1;stroke-width:.26458332"/><path id="path4824" d="m 11.540994,265.31455 a 0.69573599,0.69573599 0 0 0 -0.695565,0.69608 0.69573599,0.69573599 0 0 0 0.398942,0.62838 0.88470054,0.88470054 0 0 0 0.0217,0.001 0.88470054,0.88470054 0 0 0 0.884701,-0.8847 0.88470054,0.88470054 0 0 0 -0.0052,-0.0873 0.69573599,0.69573599 0 0 0 -0.604614,-0.35347 z" style="opacity:1;fill:#f1d04b;fill-opacity:1;stroke-width:.26458332"/><circle id="path4829" cx="10.374" cy="269.071" r=".766" style="opacity:1;fill:#715c09;fill-opacity:1;stroke-width:.24757525"/><path id="path4831" d="m 10.564826,268.52417 a 0.62519877,0.61973123 0 0 0 -0.625285,0.62012 0.62519877,0.61973123 0 0 0 0.625285,0.6196 0.62519877,0.61973123 0 0 0 0.193787,-0.0315 0.76593601,0.76593601 0 0 0 0.381372,-0.66146 0.76593601,0.76593601 0 0 0 -0.04392,-0.25218 0.62519877,0.61973123 0 0 0 -0.531234,-0.29456 z" style="opacity:1;fill:#e2b80f;fill-opacity:1;stroke-width:.25962743"/><circle id="path4836" cx="10.299" cy="273.751" r=".661" style="display:inline;opacity:1;fill:#574707;fill-opacity:1;stroke-width:.26458332"/><circle id="path4839" cx="10.319" cy="273.757" r=".55" style="display:inline;opacity:1;fill:#d0a90e;fill-opacity:1;stroke-width:.26458332"/><circle id="circle5099" cx="223.072" cy="-161.792" transform="rotate(119.71845)" style="display:inline;opacity:1;fill:#6f5b09;fill-opacity:1;stroke-width:.20181014" r="1.369"/><circle id="circle5101" cx="223.061" cy="-161.796" transform="rotate(119.71845)" style="display:inline;opacity:1;fill:#eec521;fill-opacity:1;stroke-width:.18064202" r="1.226"/><circle transform="rotate(119.71845)" style="display:inline;opacity:1;fill:#675408;fill-opacity:1;stroke-width:.26458332" id="circle5103" cx="220.522" cy="-165.619" r="1.276"/><path style="opacity:1;fill:#f0ca33;fill-opacity:1;stroke-width:.26458332" id="path5105" d="m 35.228076,274.10927 a 1.0984933,1.0984933 0 0 0 -0.409755,-1.49834 1.0984933,1.0984933 0 0 0 -1.076185,-0.006 1.2756697,1.2756697 0 0 0 -0.002,9.1e-4 1.2756697,1.2756697 0 0 0 -0.333696,0.38135 1.2756697,1.2756697 0 0 0 -0.02957,1.20887 1.0984933,1.0984933 0 0 0 0.352365,0.32193 1.0984933,1.0984933 0 0 0 1.498777,-0.4095 z"/><circle transform="rotate(119.71845)" style="display:inline;opacity:1;fill:#876e0a;fill-opacity:1;stroke-width:.26458332" id="circle5107" cx="216.789" cy="-167.202" r="1.217"/><path style="opacity:1;fill:#f0ce46;fill-opacity:1;stroke-width:.26458332" id="path5109" d="m 38.379709,271.73296 a 1.0276227,1.0276227 0 0 0 -0.382922,-1.40148 1.0276227,1.0276227 0 0 0 -1.357617,0.31334 1.2166108,1.2166108 0 0 0 0.359945,1.4824 1.0276227,1.0276227 0 0 0 1.380594,-0.39426 z"/><circle transform="rotate(119.71845)" style="opacity:1;fill:#89700b;fill-opacity:1;stroke-width:.26458332" id="circle5111" cx="213.011" cy="-166.65" r="1.111"/><path style="display:inline;opacity:1;fill:#f0cd42;fill-opacity:1;stroke-width:.26458332" id="path5113" d="m 39.550118,268.12935 a 0.88867114,0.88867114 0 0 0 -0.331305,-1.21256 0.88867114,0.88867114 0 0 0 -1.026971,0.10519 1.1108389,1.1108389 0 0 0 -0.023,0.0362 1.1108389,1.1108389 0 0 0 0.364495,1.48379 0.88867114,0.88867114 0 0 0 1.016832,-0.41267 z"/><circle transform="rotate(119.71845)" style="opacity:1;fill:#81690a;fill-opacity:1;stroke-width:.26458332" id="circle5115" cx="209.846" cy="-164.811" r=".943"/><path style="opacity:1;fill:#f0cc40;fill-opacity:1;stroke-width:.26458332" id="path5117" d="m 39.476809,264.42273 a 0.76481121,0.76481121 0 0 0 -0.285071,-1.04336 0.76481121,0.76481121 0 0 0 -0.914545,0.11881 0.94257811,0.94257811 0 0 0 0.360367,1.26902 0.94257811,0.94257811 0 0 0 0.0639,0.033 0.76481121,0.76481121 0 0 0 0.775329,-0.37738 z"/><circle transform="rotate(119.71845)" style="opacity:1;fill:#755f09;fill-opacity:1;stroke-width:.26458332" id="circle5119" cx="207.895" cy="-162.041" r=".885"/><path style="opacity:1;fill:#f1d04a;fill-opacity:1;stroke-width:.26458332" id="path5121" d="m 37.913157,261.3381 a 0.69573599,0.69573599 0 0 0 -0.259708,-0.94916 0.69573599,0.69573599 0 0 0 -0.743523,0.0345 0.88470054,0.88470054 0 0 0 -0.01163,0.0183 0.88470054,0.88470054 0 0 0 0.329757,1.20692 0.88470054,0.88470054 0 0 0 0.07839,0.0387 0.69573599,0.69573599 0 0 0 0.60671,-0.34985 z"/><circle transform="rotate(119.71845)" style="opacity:1;fill:#715c09;fill-opacity:1;stroke-width:.24757525" id="circle5123" cx="207.003" cy="-158.725" r=".766"/><path style="opacity:1;fill:#e2b80f;fill-opacity:1;stroke-width:.25962743" id="path5125" d="m 35.609615,258.89919 a 0.61973123,0.62519877 29.718449 0 0 -0.228578,-0.85046 0.61973123,0.62519877 29.718449 0 0 -0.848083,0.23588 0.61973123,0.62519877 29.718449 0 0 -0.06871,0.18392 0.76593601,0.76593601 0 0 0 0.385398,0.65912 0.76593601,0.76593601 0 0 0 0.240788,0.0869 0.61973123,0.62519877 29.718449 0 0 0.519171,-0.31533 z"/><circle transform="rotate(119.71845)" style="display:inline;opacity:1;fill:#574707;fill-opacity:1;stroke-width:.26458332" id="circle5127" cx="206.927" cy="-154.046" r=".661"/><circle transform="rotate(119.71845)" style="display:inline;opacity:1;fill:#d0a90e;fill-opacity:1;stroke-width:.26458332" id="circle5129" cx="206.948" cy="-154.039" r=".55"/><circle id="circle5131" cx="-246.428" cy="-119.382" r="1.369" style="display:inline;opacity:1;fill:#6f5b09;fill-opacity:1;stroke-width:.20181014" transform="rotate(-120.30383)"/><circle id="circle5133" cx="-246.439" cy="-119.386" r="1.226" style="display:inline;opacity:1;fill:#eec521;fill-opacity:1;stroke-width:.18064202" transform="rotate(-120.30383)"/><circle id="circle5135" cx="-248.978" cy="-123.209" r="1.276" style="display:inline;opacity:1;fill:#675408;fill-opacity:1;stroke-width:.26458332" transform="rotate(-120.30383)"/><path id="path5137" d="m 18.477017,277.5016 a 1.0984933,1.0984933 0 0 0 1.502629,0.39373 1.0984933,1.0984933 0 0 0 0.542945,-0.92921 1.2756697,1.2756697 0 0 0 2.42e-4,-0.002 1.2756697,1.2756697 0 0 0 -0.163588,-0.47961 1.2756697,1.2756697 0 0 0 -1.032365,-0.62965 1.0984933,1.0984933 0 0 0 -0.454912,0.14437 1.0984933,1.0984933 0 0 0 -0.394166,1.5029 z" style="opacity:1;fill:#f0ca33;fill-opacity:1;stroke-width:.26458332"/><circle id="circle5139" cx="-252.711" cy="-124.791" r="1.217" style="display:inline;opacity:1;fill:#876e0a;fill-opacity:1;stroke-width:.26458332" transform="rotate(-120.30383)"/><path id="path5141" d="m 18.960673,281.41895 a 1.0276227,1.0276227 0 0 0 1.40532,0.36858 1.0276227,1.0276227 0 0 0 0.406929,-1.33256 1.2166108,1.2166108 0 0 0 -1.463935,-0.4289 1.0276227,1.0276227 0 0 0 -0.348314,1.39288 z" style="opacity:1;fill:#f0ce46;fill-opacity:1;stroke-width:.26458332"/><circle id="circle5143" cx="-256.489" cy="-124.24" r="1.111" style="opacity:1;fill:#89700b;fill-opacity:1;stroke-width:.26458332" transform="rotate(-120.30383)"/><path id="path5145" d="m 21.497377,284.23338 a 0.88867114,0.88867114 0 0 0 1.215884,0.31891 0.88867114,0.88867114 0 0 0 0.422025,-0.94217 1.1108389,1.1108389 0 0 0 -0.01983,-0.0381 1.1108389,1.1108389 0 0 0 -1.467412,-0.42567 0.88867114,0.88867114 0 0 0 -0.150611,1.08699 z" style="display:inline;opacity:1;fill:#f0cd42;fill-opacity:1;stroke-width:.26458332"/><circle id="circle5147" cx="-259.654" cy="-122.401" r=".943" style="opacity:1;fill:#81690a;fill-opacity:1;stroke-width:.26458332" transform="rotate(-120.30383)"/><path id="path5149" d="m 24.744752,286.02194 a 0.76481121,0.76481121 0 0 0 1.04622,0.27439 0.76481121,0.76481121 0 0 0 0.354049,-0.85156 0.94257811,0.94257811 0 0 0 -1.27931,-0.32191 0.94257811,0.94257811 0 0 0 -0.06048,0.039 0.76481121,0.76481121 0 0 0 -0.06051,0.86015 z" style="opacity:1;fill:#f0cc40;fill-opacity:1;stroke-width:.26458332"/><circle id="circle5151" cx="-261.605" cy="-119.631" r=".885" style="opacity:1;fill:#755f09;fill-opacity:1;stroke-width:.26458332" transform="rotate(-120.30383)"/><path id="path5153" d="m 28.198021,286.20876 a 0.69573599,0.69573599 0 0 0 0.951948,0.24929 0.69573599,0.69573599 0 0 0 0.341657,-0.66128 0.88470054,0.88470054 0 0 0 -0.0099,-0.0191 0.88470054,0.88470054 0 0 0 -1.210229,-0.31742 0.88470054,0.88470054 0 0 0 -0.07269,0.0486 0.69573599,0.69573599 0 0 0 -4.4e-5,0.70035 z" style="opacity:1;fill:#f1d04a;fill-opacity:1;stroke-width:.26458332"/><circle id="circle5155" cx="-262.497" cy="-116.315" r=".766" style="opacity:1;fill:#715c09;fill-opacity:1;stroke-width:.24757525" transform="rotate(-120.30383)"/><path id="path5157" d="m 31.461643,285.43202 a 0.62519877,0.61973123 59.696185 0 0 0.850906,0.22694 0.62519877,0.61973123 59.696185 0 0 0.219425,-0.85249 0.62519877,0.61973123 59.696185 0 0 -0.124984,-0.15141 0.76593601,0.76593601 0 0 0 -0.763511,0.003 0.76593601,0.76593601 0 0 0 -0.195593,0.16516 0.62519877,0.61973123 59.696185 0 0 0.01364,0.60728 z" style="opacity:1;fill:#e2b80f;fill-opacity:1;stroke-width:.25962743"/><circle id="circle5159" cx="-262.572" cy="-111.635" r=".661" style="display:inline;opacity:1;fill:#574707;fill-opacity:1;stroke-width:.26458332" transform="rotate(-120.30383)"/><circle id="circle5161" cx="-262.552" cy="-111.629" r=".55" style="display:inline;opacity:1;fill:#d0a90e;fill-opacity:1;stroke-width:.26458332" transform="rotate(-120.30383)"/></g></svg>